HIERARCHY
ROOT Root
{
  OFFSET 0.0 0.0 0.0
  CHANNELS 6 Xposition Yposition Zposition Zrotation Yrotation Xrotation
  JOINT Hips
  {
    OFFSET 0.0 100.0 0.0
    CHANNELS 6 Xposition Yposition Zposition Zrotation Yrotation Xrotation
    JOINT Spine1
    {
      OFFSET 5.003913 -0.037094 -0.013727
      CHANNELS 3 Zrotation Yrotation Xrotation
      JOINT Spine2
      {
        OFFSET 7.125363 -1e-06 0.0
        CHANNELS 3 Zrotation Yrotation Xrotation
        JOINT Chest
        {
          OFFSET 7.594027 1e-06 0.0
          CHANNELS 3 Zrotation Yrotation Xrotation
          JOINT Neck1
          {
            OFFSET 26.313086 -0.460272 -0.181672
            CHANNELS 3 Zrotation Yrotation Xrotation
            JOINT Neck2
            {
              OFFSET 8.045911 0.0 0.0
              CHANNELS 3 Zrotation Yrotation Xrotation
              JOINT Head
              {
                OFFSET 6.432774 0.0 0.0
                CHANNELS 3 Zrotation Yrotation Xrotation
                JOINT HeadEnd
                {
                  OFFSET 16.169773 0.06451 0.00362
                  CHANNELS 3 Zrotation Yrotation Xrotation
                }
                JOINT Jaw
                {
                  OFFSET 0.108741 3.12938 0.002639
                  CHANNELS 3 Zrotation Yrotation Xrotation
                }
                JOINT LeftEye
                {
                  OFFSET 4.45173 8.166359 3.206392
                  CHANNELS 3 Zrotation Yrotation Xrotation
                }
                JOINT RightEye
                {
                  OFFSET 4.436895 8.135758 -3.222429
                  CHANNELS 3 Zrotation Yrotation Xrotation
                }
              }
            }
          }
          JOINT LeftShoulder
          {
            OFFSET 23.218927 5.195579 1.621656
            CHANNELS 3 Zrotation Yrotation Xrotation
            JOINT LeftArm
            {
              OFFSET 15.902118 2e-06 -2e-06
              CHANNELS 3 Zrotation Yrotation Xrotation
              JOINT LeftForeArm
              {
                OFFSET 28.739307 0.0 -1e-06
                CHANNELS 3 Zrotation Yrotation Xrotation
                JOINT LeftHand
                {
                  OFFSET 27.093981 -4e-06 0.0
                  CHANNELS 3 Zrotation Yrotation Xrotation
                  JOINT LeftHandThumb1
                  {
                    OFFSET 2.276781 3.380274 0.83384
                    CHANNELS 3 Zrotation Yrotation Xrotation
                    JOINT LeftHandThumb2
                    {
                      OFFSET 4.705309 -1e-06 -1e-06
                      CHANNELS 3 Zrotation Yrotation Xrotation
                      JOINT LeftHandThumb3
                      {
                        OFFSET 2.798515 0.0 3e-06
                        CHANNELS 3 Zrotation Yrotation Xrotation
                        JOINT LeftHandThumbEnd
                        {
                          OFFSET 3.180793 4e-06 -4e-06
                          CHANNELS 3 Zrotation Yrotation Xrotation
                        }
                      }
                    }
                  }
                  JOINT LeftHandIndex1
                  {
                    OFFSET 3.247786 2.352677 0.137192
                    CHANNELS 3 Zrotation Yrotation Xrotation
                    JOINT LeftHandIndex2
                    {
                      OFFSET 6.367095 1e-06 0.0
                      CHANNELS 3 Zrotation Yrotation Xrotation
                      JOINT LeftHandIndex3
                      {
                        OFFSET 3.662364 0.0 0.0
                        CHANNELS 3 Zrotation Yrotation Xrotation
                        JOINT LeftHandIndex4
                        {
                          OFFSET 2.329242 4e-06 -4e-06
                          CHANNELS 3 Zrotation Yrotation Xrotation
                          JOINT LeftHandIndexEnd
                          {
                            OFFSET 2.767823 1e-06 0.0
                            CHANNELS 3 Zrotation Yrotation Xrotation
                          }
                        }
                      }
                    }
                  }
                  JOINT LeftHandMiddle1
                  {
                    OFFSET 3.163612 0.945023 -0.406112
                    CHANNELS 3 Zrotation Yrotation Xrotation
                    JOINT LeftHandMiddle2
                    {
                      OFFSET 6.276789 3e-06 0.0
                      CHANNELS 3 Zrotation Yrotation Xrotation
                      JOINT LeftHandMiddle3
                      {
                        OFFSET 4.35652 -1e-06 4e-06
                        CHANNELS 3 Zrotation Yrotation Xrotation
                        JOINT LeftHandMiddle4
                        {
                          OFFSET 2.996877 0.0 8e-06
                          CHANNELS 3 Zrotation Yrotation Xrotation
                          JOINT LeftHandMiddleEnd
                          {
                            OFFSET 2.323256 3e-06 -4e-06
                            CHANNELS 3 Zrotation Yrotation Xrotation
                          }
                        }
                      }
                    }
                  }
                  JOINT LeftHandRing1
                  {
                    OFFSET 2.882606 -0.309162 0.107445
                    CHANNELS 3 Zrotation Yrotation Xrotation
                    JOINT LeftHandRing2
                    {
                      OFFSET 6.033198 0.0 4e-06
                      CHANNELS 3 Zrotation Yrotation Xrotation
                      JOINT LeftHandRing3
                      {
                        OFFSET 4.350578 3e-06 0.0
                        CHANNELS 3 Zrotation Yrotation Xrotation
                        JOINT LeftHandRing4
                        {
                          OFFSET 2.651321 2e-06 -7e-06
                          CHANNELS 3 Zrotation Yrotation Xrotation
                          JOINT LeftHandRingEnd
                          {
                            OFFSET 1.937663 1e-06 -4e-06
                            CHANNELS 3 Zrotation Yrotation Xrotation
                          }
                        }
                      }
                    }
                  }
                  JOINT LeftHandPinky1
                  {
                    OFFSET 2.865315 -1.525436 0.575687
                    CHANNELS 3 Zrotation Yrotation Xrotation
                    JOINT LeftHandPinky2
                    {
                      OFFSET 5.54936 1e-06 -8e-06
                      CHANNELS 3 Zrotation Yrotation Xrotation
                      JOINT LeftHandPinky3
                      {
                        OFFSET 3.070974 0.0 -4e-06
                        CHANNELS 3 Zrotation Yrotation Xrotation
                        JOINT LeftHandPinky4
                        {
                          OFFSET 1.549672 1e-06 0.0
                          CHANNELS 3 Zrotation Yrotation Xrotation
                          JOINT LeftHandPinkyEnd
                          {
                            OFFSET 1.952123 0.0 0.0
                            CHANNELS 3 Zrotation Yrotation Xrotation
                          }
                        }
                      }
                    }
                  }
                }
              }
            }
          }
          JOINT RightShoulder
          {
            OFFSET 23.161716 5.296122 -1.380114
            CHANNELS 3 Zrotation Yrotation Xrotation
            JOINT RightArm
            {
              OFFSET -16.027195 -2e-06 1.1e-05
              CHANNELS 3 Zrotation Yrotation Xrotation
              JOINT RightForeArm
              {
                OFFSET -28.736639 4e-06 2e-06
                CHANNELS 3 Zrotation Yrotation Xrotation
                JOINT RightHand
                {
                  OFFSET -27.133619 6e-06 0.0
                  CHANNELS 3 Zrotation Yrotation Xrotation
                  JOINT RightHandThumb1
                  {
                    OFFSET -2.274328 -3.351035 -0.83067
                    CHANNELS 3 Zrotation Yrotation Xrotation
                    JOINT RightHandThumb2
                    {
                      OFFSET -4.703594 -3e-06 2e-06
                      CHANNELS 3 Zrotation Yrotation Xrotation
                      JOINT RightHandThumb3
                      {
                        OFFSET -2.794935 -4e-06 -3e-06
                        CHANNELS 3 Zrotation Yrotation Xrotation
                        JOINT RightHandThumbEnd
                        {
                          OFFSET -3.183852 4e-06 1e-06
                          CHANNELS 3 Zrotation Yrotation Xrotation
                        }
                      }
                    }
                  }
                  JOINT RightHandIndex1
                  {
                    OFFSET -3.253496 -2.33755 -0.127667
                    CHANNELS 3 Zrotation Yrotation Xrotation
                    JOINT RightHandIndex2
                    {
                      OFFSET -6.344434 0.0 0.0
                      CHANNELS 3 Zrotation Yrotation Xrotation
                      JOINT RightHandIndex3
                      {
                        OFFSET -3.654871 0.0 -8e-06
                        CHANNELS 3 Zrotation Yrotation Xrotation
                        JOINT RightHandIndex4
                        {
                          OFFSET -2.327586 -1e-06 0.0
                          CHANNELS 3 Zrotation Yrotation Xrotation
                          JOINT RightHandIndexEnd
                          {
                            OFFSET -2.770001 3e-06 8e-06
                            CHANNELS 3 Zrotation Yrotation Xrotation
                          }
                        }
                      }
                    }
                  }
                  JOINT RightHandMiddle1
                  {
                    OFFSET -3.168223 -0.944764 0.411762
                    CHANNELS 3 Zrotation Yrotation Xrotation
                    JOINT RightHandMiddle2
                    {
                      OFFSET -6.266691 -1e-06 -4e-06
                      CHANNELS 3 Zrotation Yrotation Xrotation
                      JOINT RightHandMiddle3
                      {
                        OFFSET -4.348901 0.0 0.0
                        CHANNELS 3 Zrotation Yrotation Xrotation
                        JOINT RightHandMiddle4
                        {
                          OFFSET -3.00024 2e-06 -4e-06
                          CHANNELS 3 Zrotation Yrotation Xrotation
                          JOINT RightHandMiddleEnd
                          {
                            OFFSET -2.321477 -4e-06 -4e-06
                            CHANNELS 3 Zrotation Yrotation Xrotation
                          }
                        }
                      }
                    }
                  }
                  JOINT RightHandRing1
                  {
                    OFFSET -2.885654 0.293261 -0.119232
                    CHANNELS 3 Zrotation Yrotation Xrotation
                    JOINT RightHandRing2
                    {
                      OFFSET -6.032835 -1e-06 -4e-06
                      CHANNELS 3 Zrotation Yrotation Xrotation
                      JOINT RightHandRing3
                      {
                        OFFSET -4.33881 0.0 -4e-06
                        CHANNELS 3 Zrotation Yrotation Xrotation
                        JOINT RightHandRing4
                        {
                          OFFSET -2.654903 -4e-06 -4e-06
                          CHANNELS 3 Zrotation Yrotation Xrotation
                          JOINT RightHandRingEnd
                          {
                            OFFSET -1.935122 0.0 4e-06
                            CHANNELS 3 Zrotation Yrotation Xrotation
                          }
                        }
                      }
                    }
                  }
                  JOINT RightHandPinky1
                  {
                    OFFSET -2.866241 1.503904 -0.60527
                    CHANNELS 3 Zrotation Yrotation Xrotation
                    JOINT RightHandPinky2
                    {
                      OFFSET -5.553177 -2e-06 0.0
                      CHANNELS 3 Zrotation Yrotation Xrotation
                      JOINT RightHandPinky3
                      {
                        OFFSET -3.062664 -1e-06 -4e-06
                        CHANNELS 3 Zrotation Yrotation Xrotation
                        JOINT RightHandPinky4
                        {
                          OFFSET -1.546529 2e-06 4e-06
                          CHANNELS 3 Zrotation Yrotation Xrotation
                          JOINT RightHandPinkyEnd
                          {
                            OFFSET -1.952341 0.0 -4e-06
                            CHANNELS 3 Zrotation Yrotation Xrotation
                          }
                        }
                      }
                    }
                  }
                }
              }
            }
          }
        }
      }
    }
    JOINT LeftLeg
    {
      OFFSET -8.443107 2.567604 10.043214
      CHANNELS 3 Zrotation Yrotation Xrotation
      JOINT LeftShin
      {
        OFFSET 43.229198 1e-06 -1e-06
        CHANNELS 3 Zrotation Yrotation Xrotation
        JOINT LeftFoot
        {
          OFFSET 42.298611 1e-06 1e-06
          CHANNELS 3 Zrotation Yrotation Xrotation
          JOINT LeftToeBase
          {
            OFFSET 14.165858 1e-06 0.0
            CHANNELS 3 Zrotation Yrotation Xrotation
            JOINT LeftToeEnd
            {
              OFFSET 6.7141 -0.234461 0.0
              CHANNELS 3 Zrotation Yrotation Xrotation
            }
          }
        }
      }
    }
    JOINT RightLeg
    {
      OFFSET -8.303923 2.592729 -10.047278
      CHANNELS 3 Zrotation Yrotation Xrotation
      JOINT RightShin
      {
        OFFSET -43.369682 0.0 1e-06
        CHANNELS 3 Zrotation Yrotation Xrotation
        JOINT RightFoot
        {
          OFFSET -42.260784 4e-06 2e-06
          CHANNELS 3 Zrotation Yrotation Xrotation
          JOINT RightToeBase
          {
            OFFSET -14.222245 -2e-06 -1e-06
            CHANNELS 3 Zrotation Yrotation Xrotation
            JOINT RightToeEnd
            {
              OFFSET -6.660062 0.232574 -2e-06
              CHANNELS 3 Zrotation Yrotation Xrotation
            }
          }
        }
      }
    }
  }
}
MOTION
Frames: 4
Frame Time: 0.03333333333333333
0.0 0.0 0.0 0.0 -0.0 0.0 4.409729 48.712597 2.696013 89.927391 -62.911377 88.940376 6.184394 0.64287 0.006835 -6.824795 -0.165974 -1.024412 19.19573 2.163814 -1.310053 30.047031 -0.955238 3.502149 -2.649787 -0.865573 0.611873 -22.406122 -0.295548 -0.009178 6e-06 -0.0 0.0 -0.215796 0.041909 0.017176 -0.214835 0.205103 0.076282 -0.253668 -0.117982 -0.036222 -34.546989 -70.517609 42.332214 85.633736 -5.200893 -26.799875 26.247429 -1.973001 -0.364176 -60.339264 71.029831 -53.181541 17.636639 -26.322739 52.41119 -19.466656 -14.3956 29.410389 -0.0 -8.774821 -1e-06 15.371794 -18.127817 6.799898 -0.609776 -1.795654 -3.889328 -4.807089 -11.046813 -2.937848 3e-06 -20.976021 3e-06 -5.019974 -25.033564 -4.031878 6e-06 1e-06 -1e-06 -10.634537 -5.686972 -3.565587 10.573272 -17.922953 -3.113898 3e-06 -13.821212 2e-06 -0.50178 -31.181507 -4.027017 -11.194181 -58.325752 7.329209 -13.982719 -7.150198 -2.875042 13.772732 -8.401495 -3.218239 0.347731 -34.211555 0.771658 -0.963031 -17.733374 2.621022 0.0 -0.0 1e-06 -17.346424 -20.095222 -4.201779 21.757565 -1.638373 3.866428 1e-06 -6.338826 1e-06 -1.697591 -22.591751 -6.194006 -1e-06 -4e-06 -3e-06 118.459427 -80.182877 74.657677 77.998291 -1.496655 -0.868831 37.610237 -0.864739 -0.931253 -20.575262 70.989532 -10.177348 22.182106 -20.375891 49.933315 -16.701807 -16.743525 28.476524 -1e-06 -12.690597 -0.0 17.525618 -18.136732 2.339686 -0.105919 -1.513853 -4.275881 -5.039039 -5.612873 -2.953556 3e-06 -11.02052 -2e-06 -6.111297 -15.895332 -3.840469 0.0 0.0 -0.0 -10.283367 -5.680288 -4.341838 11.028292 -11.302399 -2.372633 -1.384269 -14.238582 -6.32012 -0.625438 -26.924183 -3.827601 -4.191101 -50.217617 -3.995919 -13.708518 -7.363476 -3.720938 18.141146 -14.052734 -3.242675 5e-06 -18.78727 -1e-06 -0.429712 -8.456043 2.555503 -0.0 -1e-06 -0.0 -15.92353 -20.094482 -5.473584 30.419197 -7.190822 1.735923 -0.0 -8.162924 -0.0 -1.861902 -22.861473 -6.167942 -1e-06 -3e-06 -1e-06 137.694839 -3.15636 -3.427522 89.174881 -1.434985 0.382194 -93.550087 5.509358 -6.759645 -53.429001 1.676149 0.989309 -0.999997 -0.0 -0.0 -68.229759 -16.073368 11.760837 113.880066 -0.819179 0.454347 -98.452354 18.40044 -7.646835 -52.645763 1.207165 1.07863 -1.000004 0.0 -0.0 
0.0 0.0 0.0 0.0 -0.0 0.0 4.376452 48.783798 3.392718 89.19825 -63.225307 89.229752 6.037332 0.717571 0.062999 -6.894796 -0.162747 -0.850803 19.202259 2.086785 -1.082564 30.121687 -1.357721 3.29087 -2.641481 -0.785234 0.481397 -22.448036 -0.188939 -0.046209 6e-06 -0.0 0.0 -0.216208 0.012147 0.014866 -0.182599 0.161479 0.077241 -0.226384 -0.13174 -0.046579 -35.364708 -70.493408 43.373947 86.230255 -5.690113 -27.223959 26.402216 -2.057207 -0.372932 -60.086727 72.790062 -52.623837 17.636627 -26.322721 52.411179 -19.466658 -14.395597 29.410381 -2e-06 -8.774821 -1e-06 15.374438 -18.151537 6.803103 -0.609778 -1.795653 -3.889327 -4.807087 -11.046809 -2.937849 5e-06 -20.976006 -1e-06 -5.019969 -25.033546 -4.03188 6e-06 -0.0 1e-06 -10.634531 -5.686969 -3.565587 10.573271 -17.922947 -3.1139 3e-06 -13.821202 3e-06 -0.501774 -31.181498 -4.027019 -11.139813 -58.540508 7.314479 -13.982712 -7.150196 -2.875041 13.772729 -8.401489 -3.21824 0.347736 -34.21154 0.771653 -0.963028 -17.733366 2.621019 1e-06 -0.0 1e-06 -17.346413 -20.095213 -4.201782 21.757557 -1.638376 3.866428 1e-06 -6.338822 0.0 -1.697588 -22.59174 -6.194007 -0.0 -4e-06 -3e-06 118.295998 -80.29702 75.214317 77.125221 -1.271618 -1.809932 38.894089 -0.859993 -0.890593 -17.535969 70.888855 -7.298534 22.182116 -20.375891 49.933311 -16.701811 -16.743525 28.476522 -4e-06 -12.690598 -2e-06 17.510729 -18.16713 2.397051 -0.10592 -1.513856 -4.275881 -5.039041 -5.61287 -2.953556 3e-06 -11.020523 -2e-06 -6.111297 -15.895332 -3.84047 0.0 0.0 2e-06 -10.283369 -5.680289 -4.341838 11.028292 -11.302401 -2.372632 -1.384268 -14.238581 -6.32012 -0.625439 -26.924183 -3.827602 -4.183914 -50.351204 -3.851506 -13.708524 -7.363477 -3.720938 18.141148 -14.052737 -3.242674 5e-06 -18.78727 -2e-06 -0.429711 -8.456041 2.555503 -1e-06 2e-06 0.0 -15.923536 -20.094484 -5.473584 30.41921 -7.190822 1.735926 0.0 -8.162922 1e-06 -1.861902 -22.861469 -6.167941 -0.0 -3e-06 -2e-06 138.149368 -3.593765 -3.517398 87.995338 -1.597277 0.395263 -92.784973 5.598672 -6.879298 -53.230282 1.677449 0.951597 -0.999997 -0.0 -0.0 -67.595383 -15.371317 11.090095 112.879677 -0.926687 0.45498 -97.907982 18.018528 -7.421806 -52.469276 1.19977 1.10108 -1.000005 -0.0 -0.0 
0.0 0.0 0.0 0.0 -0.0 0.0 4.238034 48.891041 4.209023 88.560318 -63.532276 89.436928 5.847937 0.730527 0.150418 -6.964843 -0.170859 -0.661255 19.250626 1.93973 -0.914677 30.238094 -1.771428 3.077045 -2.648236 -0.690018 0.326621 -22.706154 -0.148852 -0.103719 6e-06 0.0 -0.0 -0.214576 -0.022194 0.013616 -0.193645 0.111767 0.07232 -0.227028 -0.150621 -0.048838 -35.936218 -70.49202 44.09724 86.609062 -6.226828 -27.16622 26.698359 -1.977915 -0.343046 -60.182362 74.178543 -52.519775 17.636625 -26.322721 52.411186 -19.466665 -14.395602 29.410389 -2e-06 -8.774822 -3e-06 15.421495 -18.112411 6.719866 -0.609775 -1.795654 -3.889327 -4.807087 -11.046812 -2.937848 4e-06 -20.976015 -1e-06 -5.019968 -25.033558 -4.031884 6e-06 2e-06 -2e-06 -10.634535 -5.68697 -3.565587 10.573277 -17.922955 -3.113902 2e-06 -13.821211 2e-06 -0.501774 -31.181507 -4.02702 -10.99031 -58.629547 7.203732 -13.982712 -7.150198 -2.87504 13.772731 -8.40149 -3.218244 0.347736 -34.211544 0.771651 -0.963028 -17.73337 2.621017 0.0 -0.0 -1e-06 -17.346416 -20.095217 -4.20178 21.757559 -1.638376 3.866426 1e-06 -6.338824 0.0 -1.697588 -22.591743 -6.194006 -1e-06 -4e-06 -3e-06 118.635117 -80.541626 75.180557 75.999977 -1.027137 -3.119288 40.435627 -0.800666 -0.776349 -14.309581 70.574142 -3.864085 22.182117 -20.375896 49.933319 -16.701811 -16.743528 28.476528 -4e-06 -12.690601 -2e-06 17.51619 -18.157965 2.45228 -0.105919 -1.513856 -4.275881 -5.03904 -5.612871 -2.953558 5e-06 -11.020519 -1e-06 -6.111296 -15.895328 -3.840472 0.0 0.0 -0.0 -10.283371 -5.680286 -4.341839 11.028295 -11.302397 -2.372632 -1.384269 -14.238582 -6.320121 -0.625437 -26.924185 -3.827599 -4.159669 -50.416939 -3.702379 -13.708526 -7.363475 -3.720941 18.141151 -14.052738 -3.242673 7e-06 -18.78727 -1e-06 -0.429711 -8.456041 2.555504 0.0 0.0 -0.0 -15.923532 -20.094481 -5.473588 30.41921 -7.190825 1.735928 1e-06 -8.162922 2e-06 -1.861899 -22.861465 -6.167941 -2e-06 -2e-06 -1e-06 138.775833 -4.184407 -3.73109 86.562851 -1.754034 0.440325 -92.095505 5.816371 -7.272463 -53.201958 1.689552 0.949657 -0.999999 -0.0 -0.0 -66.807396 -14.46856 10.430813 111.746048 -1.043044 0.484556 -97.344872 17.448988 -7.028768 -52.933342 1.192455 1.101222 -1.000004 -0.0 0.0 
0.0 0.0 0.0 0.0 -0.0 0.0 3.942015 49.015419 4.941778 88.021347 -63.885307 89.749199 5.655164 0.707423 0.222012 -7.042275 -0.214835 -0.521422 19.277456 1.744418 -0.82809 30.334349 -2.179872 2.881098 -2.655468 -0.627453 0.11334 -23.095331 -0.08342 -0.210257 6e-06 -0.0 0.0 -0.216522 -0.068363 0.013387 -0.197503 0.050101 0.071972 -0.221684 -0.182664 -0.050988 -36.453053 -70.593811 44.739452 86.814316 -6.729171 -27.034307 27.08008 -1.88646 -0.311014 -60.078678 75.644867 -52.156399 17.636629 -26.322737 52.411209 -19.466663 -14.395597 29.410395 -1e-06 -8.774822 -1e-06 15.409501 -18.054932 6.628325 -0.609775 -1.795654 -3.889328 -4.807088 -11.046813 -2.93785 4e-06 -20.976019 1e-06 -5.019969 -25.03356 -4.031879 5e-06 0.0 -3e-06 -10.634535 -5.686973 -3.565588 10.573275 -17.922955 -3.113901 3e-06 -13.821212 2e-06 -0.501777 -31.181511 -4.027017 -10.850916 -58.600101 7.056695 -13.982716 -7.150199 -2.875043 13.772728 -8.401495 -3.218242 0.347734 -34.211552 0.77165 -0.963028 -17.73337 2.62102 -0.0 -1e-06 -0.0 -17.34642 -20.095221 -4.201783 21.757557 -1.638373 3.866427 -0.0 -6.338828 2e-06 -1.697589 -22.591749 -6.194006 -2e-06 -4e-06 -2e-06 118.888596 -80.754028 75.139427 74.762901 -0.689354 -4.859168 42.235344 -0.684771 -0.63642 -11.150623 70.101013 -0.430552 22.182117 -20.3759 49.933327 -16.701813 -16.743528 28.47653 -1e-06 -12.690601 -1e-06 17.551716 -18.183886 2.476042 -0.105919 -1.513855 -4.275882 -5.039041 -5.612871 -2.953556 4e-06 -11.020523 -1e-06 -6.111297 -15.895332 -3.84047 0.0 1e-06 1e-06 -10.283369 -5.680288 -4.341839 11.028294 -11.302403 -2.372633 -1.384268 -14.238585 -6.32012 -0.625438 -26.924187 -3.8276 -4.167138 -50.511257 -3.582495 -13.708523 -7.363472 -3.72094 18.14115 -14.052739 -3.242676 6e-06 -18.78727 -0.0 -0.429712 -8.456043 2.555504 -0.0 -0.0 0.0 -15.923532 -20.094482 -5.473586 30.41921 -7.190823 1.735925 -1e-06 -8.162925 1e-06 -1.8619 -22.861467 -6.167942 -0.0 -2e-06 -1e-06 139.217575 -4.813667 -3.891291 85.236496 -1.93002 0.485499 -91.451302 6.235145 -7.956798 -53.205967 1.703522 0.970519 -0.999999 0.0 -0.0 -66.181061 -13.536945 9.787684 110.734413 -1.1274 0.504373 -96.446075 16.733503 -6.283508 -53.904728 1.187962 1.083946 -1.000002 -0.0 -0.0 
